<svg xmlns="http://www.w3.org/2000/svg" width="30.538" height="27.436" viewBox="0 0 30.538 27.436">
  <path id="Icon_awesome-comment" data-name="Icon awesome-comment" d="M13.757,2.25C6.158,2.25,0,7.328,0,13.6a10.142,10.142,0,0,0,3.063,7.129A13.917,13.917,0,0,1,.118,25.95a.439.439,0,0,0-.081.475.421.421,0,0,0,.392.262,12.186,12.186,0,0,0,7.556-2.8,16.173,16.173,0,0,0,5.771,1.058c7.6,0,13.757-5.078,13.757-11.345S21.355,2.25,13.757,2.25Z" transform="translate(1.525 -0.75)" fill="none" stroke="#43069b" stroke-width="3"/>
</svg>
