<svg xmlns="http://www.w3.org/2000/svg" width="25.867" height="25" viewBox="0 0 25.867 25">
  <path id="Icon_feather-thumbs-up" data-name="Icon feather-thumbs-up" d="M16.938,10.7V6.3A3.4,3.4,0,0,0,13.453,3L8.807,12.9V25h13.1a2.289,2.289,0,0,0,2.323-1.87l1.6-9.9a2.121,2.121,0,0,0-.544-1.774,2.381,2.381,0,0,0-1.779-.756ZM8.807,25H5.323A2.264,2.264,0,0,1,3,22.8V15.1a2.264,2.264,0,0,1,2.323-2.2H8.807" transform="translate(-1.5 -1.5)" fill="none" stroke="#6200ee" stroke-linecap="round" stroke-linejoin="round" stroke-width="3"/>
</svg>
