<svg xmlns="http://www.w3.org/2000/svg" xmlns:xlink="http://www.w3.org/1999/xlink" width="549.81" height="379.549" viewBox="0 0 549.81 379.549">
  <defs>
    <linearGradient id="linear-gradient" y1="0.5" x2="1" y2="0.5" gradientUnits="objectBoundingBox">
      <stop offset="0" stop-color="gray" stop-opacity="0.251"/>
      <stop offset="0.54" stop-color="gray" stop-opacity="0.122"/>
      <stop offset="1" stop-color="gray" stop-opacity="0.102"/>
    </linearGradient>
  </defs>
  <g id="Group_1499" data-name="Group 1499" transform="translate(0 0.006)">
    <path id="Path_1078" data-name="Path 1078" d="M327.9,99.134c-35.242.047-69.164-9.943-101.61-21.041S161.645,54.567,127.058,49.3c-22.244-3.385-47.538-3.074-64.925,9.217C45.4,70.342,40.549,89.912,38.211,107.993c-1.759,13.6-2.569,27.878,4.017,40.32,4.573,8.637,12.4,15.756,17.916,23.988,19.255,28.637,7.675,65.218-11.037,94.519-8.774,13.748-19.052,26.925-25.685,41.461s-9.354,31.018-2.588,45.364c6.7,14.219,21.848,24.54,38.1,31.588,33,14.342,71.427,17.416,108.819,18.6,82.77,2.626,165.7-2.73,248.41-8.086,30.607-1.98,61.352-3.974,91.327-9.712,16.643-3.182,33.78-7.906,45.581-18.26,14.978-13.144,18.043-34.605,7.143-50.032-18.279-25.874-66.476-30.754-79.583-58.749-7.228-15.412-.995-33.087,8.185-47.943,19.688-31.876,53.577-60.428,54.148-96.08.391-24.483-17.232-48.368-43.554-59.008-27.59-11.145-65.208-8.279-84.538,12.494C394.991,89.856,359.014,99.1,327.9,99.134Z" transform="translate(-16.91 -47.46)" fill="#6c63ff" opacity="0.1"/>
    <path id="Path_1079" data-name="Path 1079" d="M996.507,690.488s-5.794-3.824-11.537-1.1c0,0,1.768,3.4,9.038,3.083Z" transform="translate(-528.564 -386.227)" fill="#6c63ff"/>
    <path id="Path_1080" data-name="Path 1080" d="M1006.694,693.25s1.763,6.714-2.659,11.282c0,0-2.659-2.767,0-9.547Z" transform="translate(-538.016 -388.786)" fill="#6c63ff"/>
    <path id="Path_1081" data-name="Path 1081" d="M1011.344,674.872s-.429-5.709-13.324-3.814c0,0-.061,3.682,4.465,5.427S1009.085,676.758,1011.344,674.872Z" transform="translate(-535.462 -376.853)" fill="#6c63ff"/>
    <path id="Path_1082" data-name="Path 1082" d="M1023.762,679.5s5.45,1.749.589,13.842c0,0-3.6-.8-4.243-5.615S1021.376,681.254,1023.762,679.5Z" transform="translate(-547.069 -381.519)" fill="#6c63ff"/>
    <path id="Path_1083" data-name="Path 1083" d="M1029.475,652.787s.74-9.4-12.437-8.434c0,0-.943,8.486,10.113,10.693Z" transform="translate(-545.503 -362.906)" fill="#6c63ff"/>
    <path id="Path_1084" data-name="Path 1084" d="M1045.118,630.776s-1.806-10.65-14.978-7.477c0,0-.047,9.208,12.828,10.014Z" transform="translate(-552.438 -351.502)" fill="#6c63ff"/>
    <path id="Path_1085" data-name="Path 1085" d="M1057.387,607.761s-3.027-10.372-16.077-7.27c0,0,3.107,9.33,15.209,9.184Z" transform="translate(-558.342 -339.454)" fill="#6c63ff"/>
    <path id="Path_1086" data-name="Path 1086" d="M1070.788,584.709s-2.956-10.763-15.558-7.543c0,0,4.205,10.226,14.724,9.363Z" transform="translate(-565.699 -327.114)" fill="#6c63ff"/>
    <path id="Path_1087" data-name="Path 1087" d="M1080.771,560.3s-2.272-13.163-14.021-10.25c0,0,3.413,11.975,13.159,12.169Z" transform="translate(-571.788 -312.876)" fill="#6c63ff"/>
    <path id="Path_1088" data-name="Path 1088" d="M1087.855,534.838s-2.73-13.267-14.615-9.429c0,0,4.658,12.541,13.771,11.244Z" transform="translate(-575.218 -299.708)" fill="#6c63ff"/>
    <path id="Path_1089" data-name="Path 1089" d="M1093.842,507.445s-4.333-13.272-13.522-12.913c0,0,4.427,14.017,12.753,15.558Z" transform="translate(-578.96 -283.753)" fill="#6c63ff"/>
    <path id="Path_1090" data-name="Path 1090" d="M1098.412,481.647s-4.715-15.973-12.192-14.743c0,0,3.263,12.211,11.928,17.232Z" transform="translate(-582.079 -269.119)" fill="#6c63ff"/>
    <path id="Path_1091" data-name="Path 1091" d="M1100.606,454.482s-4.422-13.309-11.786-13.842c0,0,3.008,13.1,11.64,17.3Z" transform="translate(-583.453 -255.273)" fill="#6c63ff"/>
    <path id="Path_1092" data-name="Path 1092" d="M1104.082,428.365s-5.511-13.324-10.372-13.625c0,0,2.4,13.121,9.9,15.813Z" transform="translate(-586.037 -241.584)" fill="#6c63ff"/>
    <path id="Path_1093" data-name="Path 1093" d="M1107.74,401.551s-3.39-14.469-8.26-15.671c0,0,.665,11.838,7.77,16.756Z" transform="translate(-589.087 -226.33)" fill="#6c63ff"/>
    <path id="Path_1094" data-name="Path 1094" d="M1112.48,372.1s-3.564-11.537-7.51-13.3c0,0,.778,13.6,6.6,16.115Z" transform="translate(-591.989 -212.017)" fill="#6c63ff"/>
    <path id="Path_1095" data-name="Path 1095" d="M1120.8,343.2l.717-20.339s-7.378,15.332-1.249,23.908Z" transform="translate(-598.79 -193.022)" fill="#6c63ff"/>
    <path id="Path_1096" data-name="Path 1096" d="M1132.992,305.511s5.313-14.851,6.6-15.681c0,0-10.419,9.637-9.4,22.032Z" transform="translate(-605.282 -175.564)" fill="#6c63ff"/>
    <path id="Path_1097" data-name="Path 1097" d="M1041.806,662.137s9.344-1.221,9.066,11.985c0,0-8.444,1.377-11.2-9.547Z" transform="translate(-557.475 -372.326)" fill="#6c63ff"/>
    <path id="Path_1098" data-name="Path 1098" d="M1060.435,639.06s10.8-.033,9.9,13.484c0,0-9.066,1.622-12.055-10.928Z" transform="translate(-567.311 -360.145)" fill="#6c63ff"/>
    <path id="Path_1099" data-name="Path 1099" d="M1074.657,617.428s9.8-4.6,16.072,7.27c0,0-9.052,3.828-16.94-5.351Z" transform="translate(-575.509 -348.249)" fill="#6c63ff"/>
    <path id="Path_1100" data-name="Path 1100" d="M1087.76,592.9s10.037-4.889,15.931,6.7c0,0-10.457,3.6-16.761-4.866Z" transform="translate(-582.454 -335.208)" fill="#6c63ff"/>
    <path id="Path_1101" data-name="Path 1101" d="M1095.723,568.307s9.66-9.227,17.369.1c0,0-9.868,7.6-17.812,1.952Z" transform="translate(-586.867 -320.598)" fill="#6c63ff"/>
    <path id="Path_1102" data-name="Path 1102" d="M1102.689,540.963s9.717-9.429,17.364.434c0,0-10.9,7.746-17.713,1.546Z" transform="translate(-590.599 -306.148)" fill="#6c63ff"/>
    <path id="Path_1103" data-name="Path 1103" d="M1106.93,510.437s7.487-11.787,16.3-9.156c0,0-7.77,12.48-16.218,11.923Z" transform="translate(-593.025 -287.121)" fill="#6c63ff"/>
    <path id="Path_1104" data-name="Path 1104" d="M1111.393,484.009s7.543-14.842,14.681-12.258c0,0-5.441,11.409-14.875,14.762Z" transform="translate(-595.281 -271.557)" fill="#6c63ff"/>
    <path id="Path_1105" data-name="Path 1105" d="M1111.874,456.729s7.756-11.683,15.021-10.254c0,0-6.341,11.848-15.775,13.635Z" transform="translate(-595.239 -258.292)" fill="#6c63ff"/>
    <path id="Path_1106" data-name="Path 1106" d="M1114,428.291s6.011-13.111,10.9-13.2c0,0-2.885,13.017-10.49,15.426Z" transform="translate(-596.761 -241.769)" fill="#6c63ff"/>
    <path id="Path_1107" data-name="Path 1107" d="M1116.5,403.6s6.681-13.276,11.7-13.3c0,0-3.418,11.353-11.48,14.469Z" transform="translate(-598.083 -228.666)" fill="#6c63ff"/>
    <path id="Path_1108" data-name="Path 1108" d="M1118.63,375.05s5-10.985,9.137-12.23c0,0-2.5,13.39-8.585,15.143Z" transform="translate(-599.209 -214.142)" fill="#6c63ff"/>
    <path id="Path_1109" data-name="Path 1109" d="M1123.561,346.075l11.169-17.015s-2.862,16.784-12.8,20.273Z" transform="translate(-600.953 -196.299)" fill="#6c63ff"/>
    <path id="Path_1110" data-name="Path 1110" d="M1135.588,314.335s12.979-8.958,13.451-10.405c0,0-6.6,12.546-18.858,14.762Z" transform="translate(-605.313 -183.017)" fill="#6c63ff"/>
    <path id="Path_1111" data-name="Path 1111" d="M1142.9,301.4s14.9-14.328,18.708-14.314c0,0-12.291.561-19.066,13.55Z" transform="translate(-611.846 -174.116)" fill="#6c63ff"/>
    <path id="Path_1112" data-name="Path 1112" d="M1118.94,351.875l.542.071c2.8-21.918,6.883-34.888,11.494-36.477l-.179-.519C1125.908,316.647,1121.8,329.419,1118.94,351.875Z" transform="translate(-599.372 -188.841)" fill="#444053"/>
    <path id="Path_1113" data-name="Path 1113" d="M1110.2,443.864l.82.066c.174-2.046.306-4.139.4-6.228.783-18.142,1.994-34.8,3.588-47.293l-.471-.589c-1.6,12.517-3.154,29.679-3.937,47.849C1110.506,439.743,1110.374,441.827,1110.2,443.864Z" transform="translate(-594.753 -228.413)" fill="#444053"/>
    <path id="Path_1114" data-name="Path 1114" d="M976.5,601.962c.141-.061,14.582-6.511,29.57-21.89a118.915,118.915,0,0,0,21.617-30.645c6.93-14.111,11.155-31.451,12.569-48.3l-.854.4c-3.182,37.811-20.4,63.648-34.082,77.721-14.842,15.242-29.122,21.626-29.264,21.687Z" transform="translate(-523.855 -287.244)" fill="#444053"/>
    <path id="Path_1115" data-name="Path 1115" d="M543.926,132.69H90.906a4.036,4.036,0,0,0-4.036,4.036v11.758H547.962V136.726A4.036,4.036,0,0,0,543.926,132.69Z" transform="translate(-53.886 -92.51)" fill="#3f3d56"/>
    <path id="Path_1116" data-name="Path 1116" d="M86.87,166.19v264.6a8.137,8.137,0,0,0,8.137,8.138H539.824a8.137,8.137,0,0,0,8.137-8.137V166.19Z" transform="translate(-53.886 -110.216)" fill="#fff"/>
    <circle id="Ellipse_2" data-name="Ellipse 2" cx="1.886" cy="1.886" r="1.886" transform="translate(38.401 46.073)" fill="#fa5959" opacity="0.8"/>
    <circle id="Ellipse_3" data-name="Ellipse 3" cx="1.886" cy="1.886" r="1.886" transform="translate(43.587 46.073)" fill="#fed253" opacity="0.8"/>
    <circle id="Ellipse_4" data-name="Ellipse 4" cx="1.886" cy="1.886" r="1.886" transform="translate(48.773 46.073)" fill="#8ccf4d" opacity="0.8"/>
    <rect id="Rectangle_1613" data-name="Rectangle 1613" width="370.571" height="162.947" transform="translate(75.844 100.093)" opacity="0.05"/>
    <rect id="Rectangle_1614" data-name="Rectangle 1614" width="364.913" height="159.355" transform="translate(78.673 101.329)" fill="#3f3d56"/>
    <path id="Path_1117" data-name="Path 1117" d="M354.083,349.38a36.3,36.3,0,1,0,36.3,36.3A36.3,36.3,0,0,0,354.083,349.38Zm6.511,37.175v17.19H347.76v-17.19a10.632,10.632,0,1,1,12.833,0Z" transform="translate(-175.931 -207.039)" fill="#6c63ff"/>
    <path id="Path_1118" data-name="Path 1118" d="M354.083,349.38a36.3,36.3,0,1,0,36.3,36.3A36.3,36.3,0,0,0,354.083,349.38Zm6.511,37.175v17.19H347.76v-17.19a10.632,10.632,0,1,1,12.833,0Z" transform="translate(-175.931 -207.039)" opacity="0.05"/>
    <path id="Path_1119" data-name="Path 1119" d="M342.455,327.38a46.675,46.675,0,1,0,46.675,46.675,46.675,46.675,0,0,0-46.675-46.675Zm8.368,47.8v22.1h-16.5v-22.1a13.672,13.672,0,1,1,16.5,0Z" transform="translate(-164.303 -195.411)" fill="#6200ee"/>
    <rect id="Rectangle_1615" data-name="Rectangle 1615" width="150.869" height="16.03" transform="translate(244.157 172.52)" fill="#fff"/>
    <rect id="Rectangle_1616" data-name="Rectangle 1616" width="32.531" height="16.03" transform="translate(362.495 201.751)" fill="#6c63ff"/>
    <path id="Path_1120" data-name="Path 1120" d="M558.616,426.18h-2.73l2.428-2.423a.241.241,0,0,0,0-.335.236.236,0,0,0-.335,0l-2.428,2.428v-2.734a.236.236,0,0,0-.236-.236.24.24,0,0,0-.236.236v2.734l-2.423-2.442a.236.236,0,0,0-.335,0,.24.24,0,0,0,0,.335l2.428,2.423h-2.734a.24.24,0,0,0-.236.236.236.236,0,0,0,.236.236h2.734l-2.428,2.428a.24.24,0,0,0,0,.335.245.245,0,0,0,.335,0l2.423-2.428v2.73a.236.236,0,1,0,.471,0v-2.73l2.428,2.428a.245.245,0,0,0,.335,0,.241.241,0,0,0,0-.335l-2.428-2.428h2.73a.229.229,0,1,0,0-.457Z" transform="translate(-299.608 -245.886)" fill="#6c63ff"/>
    <path id="Path_1121" data-name="Path 1121" d="M579.616,426.18h-2.73l2.428-2.423a.241.241,0,0,0,0-.335.236.236,0,0,0-.335,0l-2.428,2.428v-2.734a.236.236,0,0,0-.236-.236.24.24,0,0,0-.236.236v2.734l-2.423-2.442a.236.236,0,0,0-.335,0,.24.24,0,0,0,0,.335l2.428,2.423h-2.734a.24.24,0,0,0-.236.236.236.236,0,0,0,.236.236h2.734l-2.428,2.428a.24.24,0,0,0,0,.335.245.245,0,0,0,.335,0l2.423-2.428v2.73a.236.236,0,1,0,.471,0v-2.73l2.428,2.428a.245.245,0,0,0,.335,0,.241.241,0,0,0,0-.335l-2.428-2.428h2.73a.229.229,0,1,0,0-.457Z" transform="translate(-310.707 -245.886)" fill="#6c63ff"/>
    <path id="Path_1122" data-name="Path 1122" d="M600.616,426.18h-2.73l2.428-2.423a.241.241,0,0,0,0-.335.236.236,0,0,0-.335,0l-2.428,2.428v-2.734a.236.236,0,0,0-.236-.236.241.241,0,0,0-.236.236v2.734l-2.423-2.442a.236.236,0,0,0-.335,0,.241.241,0,0,0,0,.335l2.428,2.423h-2.734a.24.24,0,0,0-.236.236.236.236,0,0,0,.236.236h2.734l-2.428,2.428a.241.241,0,0,0,0,.335.245.245,0,0,0,.335,0l2.423-2.428v2.73a.236.236,0,1,0,.471,0v-2.73l2.428,2.428a.245.245,0,0,0,.335,0,.241.241,0,0,0,0-.335l-2.428-2.428h2.73a.229.229,0,1,0,0-.457Z" transform="translate(-321.806 -245.886)" fill="#6c63ff"/>
    <path id="Path_1123" data-name="Path 1123" d="M621.616,426.18h-2.73l2.428-2.423a.241.241,0,0,0,0-.335.236.236,0,0,0-.335,0l-2.428,2.428v-2.734a.236.236,0,0,0-.236-.236.24.24,0,0,0-.236.236v2.734l-2.423-2.442a.236.236,0,0,0-.335,0,.24.24,0,0,0,0,.335l2.428,2.423h-2.734a.24.24,0,0,0-.236.236.236.236,0,0,0,.236.236h2.734l-2.428,2.428a.24.24,0,0,0,0,.335.245.245,0,0,0,.335,0l2.423-2.428v2.73a.236.236,0,1,0,.471,0v-2.73l2.428,2.428a.245.245,0,0,0,.335,0,.241.241,0,0,0,0-.335l-2.428-2.428h2.73a.229.229,0,1,0,0-.457Z" transform="translate(-332.906 -245.886)" fill="#6c63ff"/>
    <path id="Path_1124" data-name="Path 1124" d="M642.616,426.18h-2.73l2.428-2.423a.241.241,0,0,0,0-.335.236.236,0,0,0-.335,0l-2.428,2.428v-2.734a.236.236,0,0,0-.236-.236.24.24,0,0,0-.236.236v2.734l-2.423-2.442a.236.236,0,0,0-.335,0,.24.24,0,0,0,0,.335l2.428,2.423h-2.734a.24.24,0,0,0-.236.236.236.236,0,0,0,.236.236h2.734l-2.428,2.428a.24.24,0,0,0,0,.335.245.245,0,0,0,.335,0l2.423-2.428v2.73a.236.236,0,1,0,.471,0v-2.73l2.428,2.428a.245.245,0,0,0,.335,0,.241.241,0,0,0,0-.335l-2.428-2.428h2.73a.229.229,0,1,0,0-.457Z" transform="translate(-344.005 -245.886)" fill="#6c63ff"/>
    <path id="Path_1125" data-name="Path 1125" d="M663.616,426.18h-2.73l2.428-2.423a.241.241,0,0,0,0-.335.236.236,0,0,0-.335,0l-2.428,2.428v-2.734a.236.236,0,0,0-.236-.236.24.24,0,0,0-.236.236v2.734l-2.423-2.442a.236.236,0,0,0-.335,0,.241.241,0,0,0,0,.335l2.428,2.423h-2.734a.24.24,0,0,0-.236.236.236.236,0,0,0,.236.236h2.734l-2.428,2.428a.241.241,0,0,0,0,.335.245.245,0,0,0,.335,0l2.423-2.428v2.73a.236.236,0,1,0,.471,0v-2.73l2.428,2.428a.245.245,0,0,0,.335,0,.241.241,0,0,0,0-.335l-2.428-2.428h2.73a.229.229,0,1,0,0-.457Z" transform="translate(-355.104 -245.886)" fill="#6c63ff"/>
    <path id="Path_1126" data-name="Path 1126" d="M684.616,426.18h-2.73l2.428-2.423a.241.241,0,0,0,0-.335.236.236,0,0,0-.335,0l-2.428,2.428v-2.734a.236.236,0,0,0-.236-.236.24.24,0,0,0-.236.236v2.734l-2.423-2.442a.236.236,0,0,0-.335,0,.24.24,0,0,0,0,.335l2.428,2.423h-2.734a.24.24,0,0,0-.236.236.236.236,0,0,0,.236.236h2.734l-2.428,2.428a.24.24,0,0,0,0,.335.245.245,0,0,0,.335,0l2.423-2.428v2.73a.236.236,0,1,0,.471,0v-2.73l2.428,2.428a.245.245,0,0,0,.335,0,.241.241,0,0,0,0-.335l-2.428-2.428h2.73a.229.229,0,1,0,0-.457Z" transform="translate(-366.203 -245.886)" fill="#6c63ff"/>
    <path id="Path_1127" data-name="Path 1127" d="M705.616,426.18h-2.73l2.428-2.423a.241.241,0,0,0,0-.335.236.236,0,0,0-.335,0l-2.428,2.428v-2.734a.236.236,0,0,0-.236-.236.24.24,0,0,0-.236.236v2.734l-2.423-2.442a.236.236,0,0,0-.335,0,.24.24,0,0,0,0,.335l2.428,2.423h-2.734a.24.24,0,0,0-.236.236.236.236,0,0,0,.236.236h2.734l-2.428,2.428a.24.24,0,0,0,0,.335.245.245,0,0,0,.335,0l2.423-2.428v2.73a.236.236,0,1,0,.471,0v-2.73l2.428,2.428a.245.245,0,0,0,.335,0,.241.241,0,0,0,0-.335l-2.428-2.428h2.73a.229.229,0,1,0,0-.457Z" transform="translate(-377.303 -245.886)" fill="#6c63ff"/>
    <path id="Path_1128" data-name="Path 1128" d="M726.616,426.18h-2.73l2.428-2.423a.241.241,0,0,0,0-.335.236.236,0,0,0-.335,0l-2.428,2.428v-2.734a.236.236,0,0,0-.236-.236.24.24,0,0,0-.236.236v2.734l-2.423-2.442a.236.236,0,0,0-.335,0,.241.241,0,0,0,0,.335l2.428,2.423h-2.734a.24.24,0,0,0-.236.236.236.236,0,0,0,.236.236h2.734l-2.428,2.428a.241.241,0,0,0,0,.335.245.245,0,0,0,.335,0l2.423-2.428v2.73a.236.236,0,1,0,.471,0v-2.73l2.428,2.428a.245.245,0,0,0,.335,0,.241.241,0,0,0,0-.335l-2.428-2.428h2.73a.229.229,0,1,0,0-.457Z" transform="translate(-388.402 -245.886)" fill="#6c63ff"/>
    <path id="Path_1129" data-name="Path 1129" d="M747.616,426.18h-2.73l2.428-2.423a.241.241,0,0,0,0-.335.236.236,0,0,0-.335,0l-2.428,2.428v-2.734a.236.236,0,0,0-.236-.236.24.24,0,0,0-.236.236v2.734l-2.423-2.442a.236.236,0,0,0-.335,0,.24.24,0,0,0,0,.335l2.428,2.423h-2.734a.24.24,0,0,0-.236.236.236.236,0,0,0,.236.236h2.734l-2.428,2.428a.24.24,0,0,0,0,.335.245.245,0,0,0,.335,0l2.423-2.428v2.73a.236.236,0,1,0,.471,0v-2.73l2.428,2.428a.245.245,0,0,0,.335,0,.241.241,0,0,0,0-.335l-2.428-2.428h2.73a.229.229,0,1,0,0-.457Z" transform="translate(-399.501 -245.886)" fill="#6c63ff"/>
    <path id="Path_1130" data-name="Path 1130" d="M768.616,426.18h-2.73l2.428-2.423a.241.241,0,0,0,0-.335.236.236,0,0,0-.335,0l-2.428,2.428v-2.734a.236.236,0,0,0-.236-.236.24.24,0,0,0-.236.236v2.734l-2.423-2.442a.236.236,0,0,0-.335,0,.24.24,0,0,0,0,.335l2.428,2.423h-2.734a.24.24,0,0,0-.236.236.236.236,0,0,0,.236.236h2.734l-2.428,2.428a.24.24,0,0,0,0,.335.245.245,0,0,0,.335,0l2.423-2.428v2.73a.236.236,0,1,0,.471,0v-2.73l2.428,2.428a.245.245,0,0,0,.335,0,.241.241,0,0,0,0-.335l-2.428-2.428h2.73a.229.229,0,1,0,0-.457Z" transform="translate(-410.6 -245.886)" fill="#6c63ff"/>
    <path id="Path_1131" data-name="Path 1131" d="M857.025,507.04a8.444,8.444,0,0,0-.212-1.693c-.424-1.594-1.381-3.522-2.956-4a24.817,24.817,0,0,1-4.686-1.98c-.283-5.054.877-10.226-.387-15.125a38.489,38.489,0,0,1-1.457-5.342c-.259-2.282.363-4.715-.547-6.817a6.728,6.728,0,0,0-3.984-3.442,21.229,21.229,0,0,0-5.313-.943c-2.263-.184-9.59-1.051-12.145.971h0a2.666,2.666,0,0,0-.471.471h0a1.89,1.89,0,0,0-.151.245l-.024.038a1.923,1.923,0,0,0-.127.306h0a2.383,2.383,0,0,0-.08.354v.849c.033.424.094.849.094,1.268a2.732,2.732,0,0,1-.057.622,4.357,4.357,0,0,1-.783,1.528h0l-.085.123c-.052.075-.1.146-.151.222s-.085.132-.123.2-.075.108-.108.17a2.3,2.3,0,0,0-.123.24c0,.047-.052.09-.071.137a2.324,2.324,0,0,0-.141.4,2.632,2.632,0,0,0-.028,1.254,4.668,4.668,0,0,0,.646,1.485c.118.193.245.382.377.57l.33.448a10.164,10.164,0,0,0-.1,1.32,9.754,9.754,0,0,0,3.723,7.665,28.879,28.879,0,0,1-.06,5.984c-.042.415-.094.835-.151,1.249s-.1.688-.156,1.033a4.786,4.786,0,0,1-2.06-.156,9.722,9.722,0,0,0-.943-.363c-1.372-.344-2.772,1.023-4.13.608a.554.554,0,0,1-.061.189,1.848,1.848,0,0,0-.943-.278,3.439,3.439,0,0,1-2.046-1.174l-1.8-1.693a1.989,1.989,0,0,1-.311-.349,2.445,2.445,0,0,1-.217-.58,6.682,6.682,0,0,0-1.74-2.494,1.179,1.179,0,0,0-.514-.372.792.792,0,0,0-.236,0,2.076,2.076,0,0,0-.156-.189,4.434,4.434,0,0,0-.391-.4c-.858-.792-.943-1.471-1.688-2.357a22.649,22.649,0,0,1-1.763-2.664c-.061-.5-.146-1-.25-1.518a19.533,19.533,0,0,0-1.033-3.442l-.943-2.089-.108.108c-.684-1.018-1.414-1.575-2.07-1.443-1.1.226-1.641,2.357-1.466,5.144l.377,2.829a.869.869,0,0,0,.052.212,5.216,5.216,0,0,0-.1,1.018c0,.4.368.688.561,1.042a2.946,2.946,0,0,1,.471,1.608c-.024.2-.085.4-.094.594a2.286,2.286,0,0,0,.443,1.226l2.357,3.96.471.83.028.038a2.013,2.013,0,0,0,.632.726,8.635,8.635,0,0,0,.778,2.862c.08.179.17.349.264.519a16.674,16.674,0,0,0,2.225,2.89l1.122,1.259c1.108,1.235,2.216,2.475,3.418,3.616a4.579,4.579,0,0,0,1.528,1.07,1.73,1.73,0,0,0,1.716-.25v1.754a.985.985,0,0,1,.745,1.551,38.879,38.879,0,0,1-3.489,7.383,15.715,15.715,0,0,1,2.923,2.23,13.146,13.146,0,0,1,1.523,2.06c.042.349.075.693.094,1.037.349,5.62-1.825,11.2-3.772,16.553a12.9,12.9,0,0,0-1.127,4.686,9.206,9.206,0,0,0-1.056.759,6.991,6.991,0,0,1,.193,2.989,5.3,5.3,0,0,1-.391,1.886,13.251,13.251,0,0,1-.679,1.212c-1.221,2.155-1.49,4.715-1.735,7.176-.146,1.485.429,3.3-.245,4.63a18.94,18.94,0,0,0-2.357,7.251,7.271,7.271,0,0,1-.217,1.693c-.146.471-.406.872-.537,1.334a5.707,5.707,0,0,0-.094,1.886,18.047,18.047,0,0,1-.99,6.652c-.589,1.683-1.24,3.484-.778,5.214a7.35,7.35,0,0,0-1.994,4.38,6.906,6.906,0,0,1-.151,1.249,6.078,6.078,0,0,1-.566,1.2,10.523,10.523,0,0,0-1.282,5.658,15.738,15.738,0,0,0-2.541,6.638c-.42,2.353-.6,4.748-1.141,7.072-.717,3.074-2.013,6.181-2.268,9.33-1.527.976-2.188,2.867-2.48,4.653a20.713,20.713,0,0,1-1.089,5.313c-.387.858-.943,1.627-1.311,2.5a11.5,11.5,0,0,0-.566,2.155,8.407,8.407,0,0,0-.146,3.536A5.331,5.331,0,0,1,790,642.063c.075-.292.137-.585.189-.882-1.216,1.1-3.423.717-4.394,2.041a1.99,1.99,0,0,0,.471,2.73,3.771,3.771,0,0,0,.976.42c2.357.754,4.781,1.513,7.2,1.113a2.15,2.15,0,0,0,.816-.259,2.626,2.626,0,0,0,.759-.877q.544-.863,1.084-1.726a22.387,22.387,0,0,0,2.645.618c.09.754.156,1.509.189,2.263.471.094,1.1.123,1.325-.316a1.145,1.145,0,0,0,.08-.523c0-.335.047-.778.075-1.231h.094a8.957,8.957,0,0,0,4.172-.844c-.5-4.177,1.16-8.26,2.6-12.211,1.523-4.158,2.829-8.392,4.144-12.626.943-2.98,1.985-5.865,2.909-8.849q1.744-5.658,3.5-11.315c.509-1.66,1.023-3.3,1.608-4.95a77.132,77.132,0,0,1,4.37-9.726c.471-.891.943-1.773,1.33-2.7.471-1.127.806-2.305,1.183-3.47a53.744,53.744,0,0,1,2.961-6.968c.033-.061.057-.118.09-.174.382,1.561.764,3.145,1.018,4.715a17.915,17.915,0,0,1,.08,5.827,19.214,19.214,0,0,0-.6,3.951c.071,1.843,1.056,3.517,1.542,5.294a20.147,20.147,0,0,1,.528,4.055c.132,2.122,1.282,4.5.471,6.468-2.522,6.228-1.3,13.262-2.739,19.8-.74,3.357-3.008,6.511-2.829,9.943q.189,3.654.641,7.289a6.94,6.94,0,0,0,.589,2.211,8.125,8.125,0,0,0,.646,1.056c-.207.08-.382.292-.533.74a2.909,2.909,0,0,0,1.047,3.3,4.584,4.584,0,0,0,1.363.472,7.177,7.177,0,0,0,1.971.273,4.585,4.585,0,0,0,.618-.075,22.46,22.46,0,0,0,2.23.8,4.84,4.84,0,0,0,.061.58.721.721,0,0,0,.245.533.736.736,0,0,0,.377.066h2.56v-.641a2.107,2.107,0,0,0,1.627-.528,2.518,2.518,0,0,0,.471-.981q1.047-3.55,2.079-7.1a22.714,22.714,0,0,0,1.014-8.109c-.91-8.689,1.089-17.406.438-26.119a62.563,62.563,0,0,1,.8-15.671c.212-1.169.471-2.357.566-3.522.207-2.2-.047-4.418.108-6.6.052-.764.156-1.523.25-2.282a109.574,109.574,0,0,0,1.014-14.215,44.764,44.764,0,0,0-.292-4.715,2.692,2.692,0,0,0,1.287-.754,3.207,3.207,0,0,0,.306-2.013,14.6,14.6,0,0,1,1.268-4.818,57.259,57.259,0,0,0,1.782-6.629,23.141,23.141,0,0,0,.792-5.54,5.664,5.664,0,0,0-.028-.566,1.46,1.46,0,0,0,.434-.471,2.738,2.738,0,0,0,.226-.872c.17-1.2.344-2.409.514-3.616q.189-1.3.372-2.588l1.5-10.462c.127-.91.259-1.815.387-2.72l.391-2.706c.042-.321.09-.641.123-.943C858.246,511.792,857.147,509.228,857.025,507.04Zm-12.508,39.169a8.617,8.617,0,0,1-.943-4.1h-.052a2.1,2.1,0,0,0-.061-1.33c-.146-.344-.4-.636-.556-.981a3.593,3.593,0,0,1-.255-1.32,35.989,35.989,0,0,1,.674-8.552c.061-.33.127-.665.189-.995a2.462,2.462,0,0,0,.537-.42,3.82,3.82,0,0,0,.608-.943c.533-1.07,1.018-2.159,1.466-3.267.146-.358.358-.773.721-.863-.075,2.758.207,5.573-.915,8.062a5.1,5.1,0,0,0-.471,1.273c-.1.7.189,1.414.085,2.112-.052.363-.207.7-.269,1.056a1.033,1.033,0,0,0,.273,1,.822.822,0,0,0,.2.1c-.028.189-.052.382-.071.566-.038.387-.057.75-.08.976a30.4,30.4,0,0,0-.127,3.47c0,1.249.047,2.5.028,3.772a2.561,2.561,0,0,1-.179,1.07,1.857,1.857,0,0,1-.358.471A12.246,12.246,0,0,0,844.517,546.209Z" transform="translate(-423.108 -269.392)" fill="url(#linear-gradient)"/>
    <ellipse id="Ellipse_5" data-name="Ellipse 5" cx="2.659" cy="7.529" rx="2.659" ry="7.529" transform="matrix(0.98, -0.201, 0.201, 0.98, 378.568, 207.894)" fill="#fbbebe"/>
    <path id="Path_1132" data-name="Path 1132" d="M878.235,837.679a2.855,2.855,0,0,0,1.047,3.267,4.66,4.66,0,0,0,1.353.471,7.136,7.136,0,0,0,1.966.269c.816-.038,1.6-.358,2.414-.471a.377.377,0,0,1,.278.038.4.4,0,0,1,.1.33,12.448,12.448,0,0,0,.1,1.386.712.712,0,0,0,.245.533.736.736,0,0,0,.377.066h2.555a24.918,24.918,0,0,0-.731-6.667,1.49,1.49,0,0,0-.189-.471,1.561,1.561,0,0,0-.816-.471,4.559,4.559,0,0,0-1.975-.344,5.787,5.787,0,0,0-2.216,1.084,3.376,3.376,0,0,1-2.513.608C879.386,837.08,878.674,836.368,878.235,837.679Z" transform="translate(-472.074 -464.028)" fill="#3f3d56"/>
    <path id="Path_1133" data-name="Path 1133" d="M795.272,834.524a7.071,7.071,0,0,1-2.579,1.754l-.434.207a.3.3,0,0,0-.146.118.255.255,0,0,0,.047.212,3.05,3.05,0,0,0,3.461,1.259,1.833,1.833,0,0,0,.759-.4,2.489,2.489,0,0,0,.585-1.518,3.108,3.108,0,0,0-.071-1.74C796.238,832.944,796,833.614,795.272,834.524Z" transform="translate(-426.629 -462.942)" fill="#fbbebe"/>
    <path id="Path_1134" data-name="Path 1134" d="M801.832,840.637a1.146,1.146,0,0,1-.08.523c-.222.434-.839.41-1.32.316a31.725,31.725,0,0,0-.58-4.762c-.915-.042-1.575.825-2.065,1.6l-1.264,2a2.612,2.612,0,0,1-.754.877,2.234,2.234,0,0,1-.816.259c-2.414.4-4.851-.358-7.18-1.113a3.8,3.8,0,0,1-.976-.415,1.994,1.994,0,0,1-.472-2.725c.976-1.32,3.168-.943,4.385-2.037a10.977,10.977,0,0,1-.622,2.249c1.627-.245,2.72-1.735,4.031-2.73a2.479,2.479,0,0,1,1.15-.547,2.531,2.531,0,0,1,.943.1,11.062,11.062,0,0,1,4.149,2.041,4.474,4.474,0,0,1,1.485,1.546A11.449,11.449,0,0,1,801.832,840.637Z" transform="translate(-423.393 -463.247)" fill="#3f3d56"/>
    <circle id="Ellipse_6" data-name="Ellipse 6" cx="9.74" cy="9.74" r="9.74" transform="translate(401.131 202.354)" fill="#fbbebe"/>
    <path id="Path_1135" data-name="Path 1135" d="M917.767,615.869a23.1,23.1,0,0,1-.787,5.511,56.889,56.889,0,0,1-1.782,6.6,14.525,14.525,0,0,0-1.259,4.809,3.2,3.2,0,0,1-.311,2.008,2.934,2.934,0,0,1-1.377.787,1.721,1.721,0,0,0-1.16,1.033,7.285,7.285,0,0,1-.981-2.159q-1.268-3.885-2.357-7.812a1.013,1.013,0,0,1,.066-.943,1.168,1.168,0,0,1,.41-.231,4.242,4.242,0,0,0,1.306-.839,1.91,1.91,0,0,0,.434-.561,2.541,2.541,0,0,0,.184-1.065c0-1.249,0-2.494-.033-3.743a31.284,31.284,0,0,1,.132-3.456c0-.226.042-.589.08-.976.071-.74.212-1.6.613-1.886.6-.4,2.39.137,3.069.231,1.169.16,2.357.349,3.5.57A9.342,9.342,0,0,1,917.767,615.869Z" transform="translate(-487.707 -346.265)" fill="#3f3d56"/>
    <path id="Path_1136" data-name="Path 1136" d="M833.712,509.521c-.377.754-1.282,1.117-1.98,1.594l-2.39,1.641a1.594,1.594,0,0,1-1.183.405,1.556,1.556,0,0,1-.882-.825.162.162,0,0,0,0-.038l-.5-.83-2.357-3.951a2.249,2.249,0,0,1-.438-1.216c0-.2.071-.391.09-.594a2.852,2.852,0,0,0-.471-1.6c-.189-.354-.566-.646-.556-1.042a3.771,3.771,0,0,1,.264-1.523,3.084,3.084,0,0,1,1.033-1.1c.222-.16.448-.311.684-.471a1.348,1.348,0,0,1,.41-.189c.391-.08.778.245,1.174.259,1.7,1.141,2.357,3.3,3.7,4.856.754.886.83,1.565,1.683,2.357.137.123.269.255.4.391a2.741,2.741,0,0,1,.424.613C832.967,508.658,833.905,509.134,833.712,509.521Z" transform="translate(-442.981 -286.521)" fill="#3f3d56"/>
    <path id="Path_1137" data-name="Path 1137" d="M876.208,509.964a8.777,8.777,0,0,1,1.047,4.748,2.966,2.966,0,0,1-.41,1.249c-.679,1.042-2.1,1.231-3.343,1.292a1.971,1.971,0,0,0-1.452.471,1.32,1.32,0,0,0,.09,1.612,3.639,3.639,0,0,0,1.443.943,12.774,12.774,0,0,0,6.209,1.377c.99-.094,1.952-.382,2.937-.528a30.83,30.83,0,0,1,3.234-.179c1.282-.047,2.56-.174,3.838-.3l3.385-.335a.754.754,0,0,0,.5-.184c.25-.292-.071-.721-.382-.943-1.8-1.33-4.083-2.244-5.106-4.243a24.972,24.972,0,0,1-.966-3.083,25.9,25.9,0,0,1-1.122-2.975,19.711,19.711,0,0,1-.156-2.744,3.682,3.682,0,0,0-.943-2.508,3.931,3.931,0,0,0-2.565-.825,8.3,8.3,0,0,0-6.252,2.027c-.429.429-.8.943-1.24,1.33s-1.047.5-.754,1.009.867.825,1.179,1.273a10.841,10.841,0,0,1,.825,1.518Z" transform="translate(-468.759 -288.124)" fill="#fbbebe"/>
    <path id="Path_1138" data-name="Path 1138" d="M883.967,533.5a53.568,53.568,0,0,1-2.885,10.622,39.993,39.993,0,0,0-1.7,4.762c-.363,1.462-.292,3.027-.627,4.493-.415,1.825-.83,3.654-1.164,5.493a36.011,36.011,0,0,0-.669,8.534,3.568,3.568,0,0,0,.255,1.315c.156.339.405.632.552.981a2.357,2.357,0,0,1-.132,1.886,5.46,5.46,0,0,1-.971,1.471c-4.394,1.311-9.094.882-13.672,1.16-4.22.255-8.486,1.122-12.645.4-.471-1.886.316-3.861.99-5.7,1.957-5.342,4.121-10.9,3.772-16.5a17.069,17.069,0,0,0-.222-1.947,25.812,25.812,0,0,1,1.254-11.914,20.447,20.447,0,0,0,.537-7.44,13.583,13.583,0,0,1-.033-2.437,4.286,4.286,0,0,1,.886-2.277c0-.033.042-.066.066-.1a.648.648,0,0,1,.354,0h0a.3.3,0,0,0,.236,0l.052-.033a.118.118,0,0,1,.137,0c.108.066.17.292.406.335a9.392,9.392,0,0,0,1.051.1,5.66,5.66,0,0,1,1.254.179h.057a3.682,3.682,0,0,0,1.829-.156,4.863,4.863,0,0,0,1.122-.434c.1-.113.754-.217.886-.3.429-.259.335-1.476.424-1.975a5.433,5.433,0,0,1,.354-1.461,2.489,2.489,0,0,1,2.018-1.174,10.743,10.743,0,0,1,2.419.217c1.759.25,3.56.207,5.285.613a3.937,3.937,0,0,0,2.612.113c.217.052.25.24.25.471a3.021,3.021,0,0,1-.132.646c-.3,1.3.721,2.5,1.664,3.442A5.336,5.336,0,0,0,881.228,528c.471.217.943.306,1.414.542a2.574,2.574,0,0,1,.943.863,3.6,3.6,0,0,1,.537,1.372,8.2,8.2,0,0,1-.156,2.73Z" transform="translate(-457.316 -297.949)" fill="#3f3d56"/>
    <path id="Path_1139" data-name="Path 1139" d="M888.941,538.956a53.566,53.566,0,0,1-2.885,10.622,39.991,39.991,0,0,0-1.7,4.762c-.363,1.461-.292,3.027-.627,4.493-.415,1.825-.83,3.654-1.165,5.493-.1.057-.2.108-.306.156a7.237,7.237,0,0,1-1.848.594,11.316,11.316,0,0,1-3.451-.113l-6.728-.9c-2.687-.363-5.549-.8-7.543-2.621a16.093,16.093,0,0,1-2.631-3.593,17.1,17.1,0,0,0-.222-1.947,25.813,25.813,0,0,1,1.254-11.914,20.445,20.445,0,0,0,.537-7.44,13.588,13.588,0,0,1-.033-2.437,4.285,4.285,0,0,1,.886-2.277,3.357,3.357,0,0,1,.42-.094h0a2.1,2.1,0,0,1,.288-.038h.137a2.059,2.059,0,0,1,.472.057,8.528,8.528,0,0,1,.943.363h.057a3.612,3.612,0,0,0,1.254.179c.622,0,1.264-.1,1.886-.141a3.479,3.479,0,0,1,2.235.4,13.4,13.4,0,0,1,1.245,1.136,5.345,5.345,0,0,0,1.57.853,16.685,16.685,0,0,0,12.55-.264,2.456,2.456,0,0,1,1.259-.321,2.356,2.356,0,0,1,.905.387c.283.165.561.325.849.471a3.6,3.6,0,0,1,.537,1.372A8.2,8.2,0,0,1,888.941,538.956Z" transform="translate(-462.29 -303.401)" opacity="0.1"/>
    <path id="Path_1140" data-name="Path 1140" d="M888.483,534.82a25.166,25.166,0,0,1-5.375-2.357,2.408,2.408,0,0,0-.905-.387,2.531,2.531,0,0,0-1.264.321,16.676,16.676,0,0,1-12.546.264,5.456,5.456,0,0,1-1.57-.853,14.086,14.086,0,0,0-1.245-1.136c-1.551-1-3.7.174-5.431-.471a9.6,9.6,0,0,0-.943-.363c-1.372-.344-2.767,1.023-4.116.608a22.931,22.931,0,0,0-1.108,4.205,45.817,45.817,0,0,0-.306,4.96c0,.995-.047,1.99,0,2.984a.979.979,0,0,1,.745,1.546,38.65,38.65,0,0,1-3.479,7.36,16,16,0,0,1,2.914,2.225c1.65,1.744,2.461,4.191,4.243,5.8,2.008,1.815,4.87,2.258,7.543,2.617l6.728.9a11.5,11.5,0,0,0,3.456.118,7.275,7.275,0,0,0,1.844-.6,3.3,3.3,0,0,0,1.028-.679,3.774,3.774,0,0,0,.608-.943c.533-1.066,1.018-2.155,1.466-3.258.156-.391.391-.849.816-.882,2.5-2.254,4.856-4.564,7.355-6.817a16.3,16.3,0,0,0,2.683-2.829c1.24-1.834.113-4.432,0-6.648a8.387,8.387,0,0,0-.212-1.683C891.005,537.22,890.053,535.3,888.483,534.82Z" transform="translate(-457.725 -302.387)" fill="#6c63ff"/>
    <path id="Path_1141" data-name="Path 1141" d="M838.451,518.254c-.377.754-1.282,1.117-1.98,1.594l-2.39,1.641a1.593,1.593,0,0,1-1.183.405,1.556,1.556,0,0,1-.882-.825v-.339a3.163,3.163,0,0,1,.151-1.127,3.512,3.512,0,0,1,1.056-1.358,8.645,8.645,0,0,1,3.1-1.886,1.06,1.06,0,0,1,.566-.057.744.744,0,0,1,.207.09,2.734,2.734,0,0,1,.424.613C837.707,517.392,838.645,517.868,838.451,518.254Z" transform="translate(-447.721 -295.255)" opacity="0.1"/>
    <path id="Path_1142" data-name="Path 1142" d="M844.736,523.565a3.434,3.434,0,0,1-2.041-1.169l-1.787-1.66a1.665,1.665,0,0,1-.311-.349,2.448,2.448,0,0,1-.217-.58,6.652,6.652,0,0,0-1.735-2.489,1.131,1.131,0,0,0-.514-.368,1.033,1.033,0,0,0-.57.057,8.623,8.623,0,0,0-3.1,1.886,3.521,3.521,0,0,0-1.056,1.358,3.134,3.134,0,0,0-.151,1.127,8.657,8.657,0,0,0,.82,3.6c.08.174.17.349.264.519a16.324,16.324,0,0,0,2.216,2.881l1.122,1.254c1.1,1.235,2.206,2.47,3.4,3.607a4.5,4.5,0,0,0,1.527,1.065,1.707,1.707,0,0,0,1.754-.283,2.537,2.537,0,0,0,.5-.9,17.635,17.635,0,0,0,1.457-5.879,22.2,22.2,0,0,0-.1-2.437C846.146,523.952,845.537,523.617,844.736,523.565Z" transform="translate(-448.376 -295.597)" fill="#6c63ff"/>
    <path id="Path_1143" data-name="Path 1143" d="M854.764,646.644a108.949,108.949,0,0,1-1.009,14.177c-.094.759-.2,1.518-.25,2.277-.156,2.2.1,4.413-.108,6.6-.108,1.183-.354,2.357-.561,3.512a62.456,62.456,0,0,0-.8,15.629c.651,8.689-1.344,17.383-.438,26.048a21.057,21.057,0,0,1-.278,5.04,21.363,21.363,0,0,1-.731,3.046q-1.033,3.541-2.074,7.072a2.453,2.453,0,0,1-.471.981,2.234,2.234,0,0,1-1.768.523c-2.72-.085-5.281-1.259-7.751-2.4a2.7,2.7,0,0,1-.778-.471c-.514-.533-.472-1.372-.7-2.074a19.737,19.737,0,0,0-1.188-2.084,6.8,6.8,0,0,1-.514-2.145q-.471-3.621-.641-7.27c-.179-3.423,2.084-6.572,2.829-9.9,1.414-6.544.217-13.559,2.73-19.769.792-1.961-.358-4.337-.471-6.45a20.446,20.446,0,0,0-.528-4.045c-.471-1.773-1.466-3.442-1.537-5.28a19.4,19.4,0,0,1,.6-3.937,17.693,17.693,0,0,0-.08-5.813c-.25-1.584-.632-3.168-1.014-4.715l-.085.174a53.277,53.277,0,0,0-2.956,6.954c-.377,1.155-.707,2.334-1.179,3.456-.387.943-.863,1.806-1.33,2.692a77.318,77.318,0,0,0-4.361,9.689c-.585,1.631-1.1,3.3-1.608,4.936l-3.494,11.315c-.943,2.975-1.975,5.851-2.9,8.821-1.306,4.243-2.612,8.449-4.13,12.6-1.414,3.937-3.1,8.015-2.593,12.173a8.957,8.957,0,0,1-4.163.844,24.373,24.373,0,0,1-7.072-1.716,5.5,5.5,0,0,1-2.442-1.452c-1.047-1.278-.787-3.149-.471-4.776a11.539,11.539,0,0,1,.566-2.15c.358-.867.943-1.636,1.311-2.494a20.926,20.926,0,0,0,1.08-5.294c.292-1.787.943-3.673,2.47-4.644.259-3.14,1.551-6.237,2.263-9.307.537-2.324.717-4.715,1.141-7.072a15.533,15.533,0,0,1,2.532-6.624,10.5,10.5,0,0,1,1.282-5.658,6.187,6.187,0,0,0,.561-1.2,6.9,6.9,0,0,0,.151-1.245,7.359,7.359,0,0,1,1.99-4.37c-.471-1.721.184-3.517.773-5.186a18.018,18.018,0,0,0,.99-6.633,5.812,5.812,0,0,1,.09-1.886c.132-.472.391-.872.542-1.325a7.543,7.543,0,0,0,.212-1.693,19.578,19.578,0,0,1,2.357-7.232c.679-1.329.1-3.135.245-4.616.245-2.461.514-5.007,1.735-7.152.226-.405.471-.792.674-1.212a5.246,5.246,0,0,0,.391-1.886,6.945,6.945,0,0,0-.193-2.98c2.522-2.1,5.964-2.687,9.245-2.829s6.6.156,9.811-.542c.943-.212,1.886-.5,2.881-.646a18.637,18.637,0,0,1,6.78.693,8.076,8.076,0,0,0,.943,4.088,43.879,43.879,0,0,1,3.494,16.841Z" transform="translate(-429.834 -352.671)" fill="#33313f"/>
    <path id="Path_1144" data-name="Path 1144" d="M887.356,673.29l-5.417,12.183c-.25-1.584-.632-3.168-1.014-4.715l-.085.174v-.255l2.951-6.492Z" transform="translate(-473.528 -378.237)" opacity="0.1"/>
    <path id="Path_1145" data-name="Path 1145" d="M920.718,615.869a2.036,2.036,0,0,1-1.075.4,5.227,5.227,0,0,1-1.763-.24l-4.243-1.061a2.082,2.082,0,0,1-.387-.137c.071-.74.212-1.6.613-1.886.6-.4,2.39.137,3.069.231,1.169.16,2.357.349,3.5.57A9.339,9.339,0,0,1,920.718,615.869Z" transform="translate(-490.658 -346.265)" opacity="0.1"/>
    <path id="Path_1146" data-name="Path 1146" d="M923.813,558.123c.09.391.217.778.292,1.174a8.959,8.959,0,0,1-.1,2.918l-.387,2.7-.387,2.711-1.495,10.434-.368,2.584-.519,3.607a2.592,2.592,0,0,1-.226.867,1.806,1.806,0,0,1-1.476.872,5.346,5.346,0,0,1-1.763-.24l-4.243-1.065a1.329,1.329,0,0,1-.519-.212,1.023,1.023,0,0,1-.273-.995c.061-.358.217-.693.269-1.051.1-.7-.189-1.414-.085-2.107a5.243,5.243,0,0,1,.471-1.268c1.414-3.126.594-6.775,1.075-10.169a15.417,15.417,0,0,1,3.272-7.279,20.894,20.894,0,0,1,3.611-3.545A7.268,7.268,0,0,1,923,556.638C923.85,556.458,923.671,557.529,923.813,558.123Z" transform="translate(-490.165 -316.571)" fill="#6c63ff"/>
    <path id="Path_1147" data-name="Path 1147" d="M863.659,470.987c-.311.99.174,2.079-.047,3.088-.24,1.113-1.287,1.886-1.584,3-.471,1.7.971,3.253,2.027,4.668,3.913,5.252,3.4,12.522,2.06,18.929a97.738,97.738,0,0,1-4.455,15.087,11.561,11.561,0,0,1-2.4,4.21c2.169-.622,4.474-1.249,6.648-.646,2.753.764,5.13,3.437,7.921,2.829,1.678-.372,2.857-1.862,4.366-2.687,2.829-1.523,6.237-.566,9.392-.075a3.687,3.687,0,0,0,2.051-.1,3.409,3.409,0,0,0,1.245-1.146,11.626,11.626,0,0,0,2.423-6.27,8.043,8.043,0,0,0-2.315-6.19A13.243,13.243,0,0,1,889,503.8a5.857,5.857,0,0,1-.778-2.857c-.372-5.186.891-10.481-.41-15.5a38.263,38.263,0,0,1-1.447-5.328c-.259-2.277.358-4.715-.547-6.8a6.667,6.667,0,0,0-3.974-3.432,21.773,21.773,0,0,0-5.3-.943C873.965,468.724,864.738,467.616,863.659,470.987Z" transform="translate(-462.122 -270.047)" fill="#33313f"/>
    <g id="Group_1498" data-name="Group 1498" transform="translate(397.138 199.86)" opacity="0.1">
      <path id="Path_1148" data-name="Path 1148" d="M868.832,508.532a97.543,97.543,0,0,1-4.432,15.026c.325-.646.6-1.325.858-2a97.219,97.219,0,0,0,4.455-15.087c1.344-6.412,1.858-13.672-2.056-18.929-.943-1.254-2.155-2.612-2.112-4.083a5.023,5.023,0,0,0-.8,1.48c-.471,1.7.971,3.253,2.027,4.667C870.685,494.855,870.171,502.125,868.832,508.532Z" transform="translate(-861.977 -477.765)"/>
      <path id="Path_1149" data-name="Path 1149" d="M868.471,475.072a4.587,4.587,0,0,0,.83-1.589,8.075,8.075,0,0,0-.057-2.1,2.268,2.268,0,0,0-.783,1.08A9.33,9.33,0,0,0,868.471,475.072Z" transform="translate(-864.063 -471.38)"/>
      <path id="Path_1150" data-name="Path 1150" d="M891.768,567.435a3.394,3.394,0,0,1-1.245,1.141,3.6,3.6,0,0,1-2.051.1c-3.154-.471-6.6-1.443-9.392.08-1.513.82-2.687,2.31-4.37,2.687-2.786.622-5.163-2.051-7.916-2.829a11.053,11.053,0,0,0-5.973.471,8.238,8.238,0,0,1-1.561,2.254c2.169-.622,4.474-1.249,6.648-.646,2.753.764,5.13,3.437,7.921,2.829,1.678-.372,2.857-1.862,4.366-2.687,2.829-1.523,6.237-.566,9.392-.075a3.688,3.688,0,0,0,2.051-.1,3.408,3.408,0,0,0,1.245-1.146,12.673,12.673,0,0,0,1.952-3.734,13.7,13.7,0,0,1-1.066,1.655Z" transform="translate(-859.26 -521.274)"/>
    </g>
  </g>
</svg>
